<svg width="247" height="27" viewBox="0 0 247 27" fill="none" xmlns="http://www.w3.org/2000/svg">
<path d="M5.0957 0.792969V0.863281C5.07227 0.921875 5.05469 1.00977 5.04297 1.12695C5.03125 1.24414 5.02539 1.34961 5.02539 1.44336C5.02539 1.80664 5.07227 2.21094 5.16602 2.65625C5.27148 3.08984 5.46484 3.63477 5.74609 4.29102L13.5332 21.8516L21.0566 4.43164C21.2324 3.99805 21.4199 3.52344 21.6191 3.00781C21.8184 2.49219 21.918 1.9707 21.918 1.44336C21.918 1.30273 21.9062 1.18555 21.8828 1.0918C21.8594 0.986328 21.8359 0.910156 21.8125 0.863281V0.792969H25.416V0.863281C25.1934 1.08594 24.9238 1.48437 24.6074 2.05859C24.291 2.63281 23.9453 3.3418 23.5703 4.18555L13.498 26.5449H12.0918L2.54688 5.04688C2.32422 4.54297 2.08984 4.05664 1.84375 3.58789C1.60938 3.11914 1.38672 2.69727 1.17578 2.32227C0.964844 1.93555 0.777344 1.61328 0.613281 1.35547C0.449219 1.09766 0.337891 0.933594 0.279297 0.863281V0.792969H5.0957ZM26.6465 7.10352C27.7949 7.10352 28.9727 7.10352 30.1797 7.10352C31.3867 7.0918 32.5059 7.08008 33.5371 7.06836C34.5684 7.04492 35.4531 7.02148 36.1914 6.99805C36.9414 6.97461 37.4336 6.93945 37.668 6.89258L36.9824 8.79102C36.666 8.70898 36.3086 8.63281 35.9102 8.5625C35.5586 8.50391 35.1309 8.45117 34.627 8.4043C34.1348 8.3457 33.5605 8.31641 32.9043 8.31641C32.6699 8.31641 32.4004 8.32812 32.0957 8.35156C31.791 8.36328 31.498 8.38086 31.2168 8.4043C30.8887 8.42773 30.5547 8.45117 30.2148 8.47461V15.418C31.1641 15.4062 32.0195 15.3828 32.7812 15.3477C33.543 15.3125 34.1934 15.2656 34.7324 15.207C35.3652 15.1602 35.9219 15.0957 36.4023 15.0137L35.9805 17.1055C35.3359 17.0234 34.6855 16.9531 34.0293 16.8945C33.4668 16.8359 32.8457 16.7891 32.166 16.7539C31.4863 16.707 30.8359 16.6836 30.2148 16.6836V24.6641C31.3047 24.6641 32.3066 24.623 33.2207 24.541C34.1348 24.4473 34.9316 24.3477 35.6113 24.2422C36.4082 24.1133 37.1289 23.9668 37.7734 23.8027L37.3691 26.1055C37.1934 26.0938 36.9062 26.0762 36.5078 26.0527C36.1211 26.041 35.7109 26.0293 35.2773 26.0176C34.8555 26.0176 34.457 26.0117 34.082 26C33.707 26 33.4492 26 33.3086 26H26.6465V25.9297C26.7285 25.6836 26.7988 25.3672 26.8574 24.9805C26.9277 24.5938 26.9805 24.1191 27.0156 23.5566C27.0625 22.9824 27.0977 22.3027 27.1211 21.5176C27.1445 20.7324 27.1562 19.8125 27.1562 18.7578V14.3281C27.1562 13.2734 27.1445 12.3594 27.1211 11.5859C27.0977 10.8008 27.0625 10.127 27.0156 9.56445C26.9805 8.99023 26.9277 8.50977 26.8574 8.12305C26.7988 7.73633 26.7285 7.41992 26.6465 7.17383V7.10352ZM45.2617 16.8242C45.4961 16.8594 45.7305 16.8887 45.9648 16.9121C46.2109 16.9238 46.4453 16.9297 46.668 16.9297C48.1328 16.9297 49.2402 16.5371 49.9902 15.752C50.752 14.9668 51.1328 13.7891 51.1328 12.2188C51.1328 10.9297 50.8281 9.91016 50.2188 9.16016C49.6211 8.41016 48.7363 8.03516 47.5645 8.03516C47.1895 8.03516 46.8555 8.05273 46.5625 8.08789C46.2812 8.11133 46.041 8.14062 45.8418 8.17578C45.6191 8.22266 45.4258 8.26953 45.2617 8.31641V16.8242ZM47.9512 17.9668C47.7168 18.002 47.4824 18.0254 47.248 18.0371C47.0254 18.0371 46.7969 18.0371 46.5625 18.0371C46.375 18.0371 46.1699 18.0312 45.9473 18.0195C45.7246 18.0078 45.4961 17.9902 45.2617 17.9668V18.8281C45.2617 19.8711 45.2734 20.7852 45.2969 21.5703C45.3203 22.3438 45.3496 23.0117 45.3848 23.5742C45.4316 24.1367 45.4844 24.6113 45.543 24.998C45.6016 25.373 45.6719 25.6836 45.7539 25.9297V26H41.6934V25.9297C41.7754 25.6836 41.8457 25.3672 41.9043 24.9805C41.9746 24.5938 42.0273 24.1191 42.0625 23.5566C42.1094 22.9824 42.1445 22.3027 42.168 21.5176C42.1914 20.7324 42.2031 19.8125 42.2031 18.7578V14.3281C42.2031 13.2734 42.1914 12.3594 42.168 11.5859C42.1445 10.8008 42.1094 10.127 42.0625 9.56445C42.0273 8.99023 41.9746 8.50977 41.9043 8.12305C41.8457 7.73633 41.7754 7.41992 41.6934 7.17383V7.10352C41.8809 7.11523 42.0801 7.12695 42.291 7.13867C42.4668 7.15039 42.6602 7.16211 42.8711 7.17383C43.0938 7.17383 43.3164 7.17383 43.5391 7.17383C43.9141 7.17383 44.4707 7.13867 45.209 7.06836C45.9473 6.99805 46.8145 6.96289 47.8105 6.96289C48.8184 6.96289 49.7324 7.08594 50.5527 7.33203C51.3848 7.57812 52.0938 7.92969 52.6797 8.38672C53.2773 8.84375 53.7344 9.40039 54.0508 10.0566C54.3789 10.7129 54.543 11.4453 54.543 12.2539C54.543 12.8867 54.4551 13.4668 54.2793 13.9941C54.1035 14.5098 53.8574 14.9785 53.541 15.4004C53.2246 15.8105 52.8496 16.1738 52.416 16.4902C51.9824 16.8066 51.502 17.082 50.9746 17.3164L54.6484 22.502C54.9648 22.9238 55.2812 23.3281 55.5977 23.7148C55.9258 24.1016 56.2363 24.4473 56.5293 24.752C56.8223 25.0566 57.0977 25.3145 57.3555 25.5254C57.6133 25.7246 57.8301 25.8594 58.0059 25.9297V26H53.4004C53.4004 25.8945 53.3242 25.7129 53.1719 25.4551C53.0312 25.1855 52.8613 24.9102 52.6621 24.6289C52.4746 24.3359 52.2812 24.0547 52.082 23.7852C51.8945 23.5156 51.7539 23.3164 51.6602 23.1875L47.9512 17.9668ZM60.3086 14.3281C60.3086 13.2734 60.2969 12.3594 60.2734 11.5859C60.25 10.8008 60.2148 10.127 60.168 9.56445C60.1328 8.99023 60.0801 8.50977 60.0098 8.12305C59.9512 7.73633 59.8809 7.41992 59.7988 7.17383V7.10352H63.877V7.17383C63.7949 7.41992 63.7188 7.73633 63.6484 8.12305C63.5898 8.50977 63.5371 8.99023 63.4902 9.56445C63.4551 10.127 63.4258 10.8008 63.4023 11.5859C63.3789 12.3594 63.3672 13.2734 63.3672 14.3281V18.7578C63.3672 19.8125 63.3789 20.7324 63.4023 21.5176C63.4258 22.3027 63.4551 22.9824 63.4902 23.5566C63.5371 24.1191 63.5898 24.5938 63.6484 24.9805C63.7188 25.3672 63.7949 25.6836 63.877 25.9297V26H59.7988V25.9297C59.8809 25.6836 59.9512 25.3672 60.0098 24.9805C60.0801 24.5938 60.1328 24.1191 60.168 23.5566C60.2148 22.9824 60.25 22.3027 60.2734 21.5176C60.2969 20.7324 60.3086 19.8125 60.3086 18.7578V14.3281ZM73.5977 8.4043C72.5312 8.4043 71.5586 8.45117 70.6797 8.54492C69.8125 8.63867 69.0625 8.73828 68.4297 8.84375C67.7031 8.97266 67.0469 9.11328 66.4609 9.26562L66.8125 6.99805C66.9883 7.02148 67.2754 7.03906 67.6738 7.05078C68.0723 7.0625 68.4883 7.07422 68.9219 7.08594C69.3672 7.08594 69.7832 7.0918 70.1699 7.10352C70.5684 7.10352 70.8438 7.10352 70.9961 7.10352H79.3105C79.4512 7.10352 79.709 7.10352 80.084 7.10352C80.4707 7.0918 80.8809 7.08594 81.3145 7.08594C81.748 7.07422 82.1641 7.0625 82.5625 7.05078C82.9609 7.03906 83.248 7.02148 83.4238 6.99805L83.7754 9.26562C83.2129 9.11328 82.5684 8.97266 81.8418 8.84375C81.2207 8.73828 80.4707 8.63867 79.5918 8.54492C78.7246 8.45117 77.7461 8.4043 76.6562 8.4043V18.7578C76.6562 19.8125 76.668 20.7324 76.6914 21.5176C76.7148 22.3027 76.7441 22.9824 76.7793 23.5566C76.8262 24.1191 76.8789 24.5938 76.9375 24.9805C76.9961 25.3672 77.0664 25.6836 77.1484 25.9297V26H73.0879V25.9297C73.1699 25.6836 73.2402 25.3672 73.2988 24.9805C73.3574 24.5938 73.4102 24.1191 73.457 23.5566C73.5039 22.9824 73.5391 22.3027 73.5625 21.5176C73.5859 20.7324 73.5977 19.8125 73.5977 18.7578V8.4043ZM96.5898 20.0586C96.2734 20.0586 95.875 20.0586 95.3945 20.0586C94.9258 20.0586 94.4102 20.0586 93.8477 20.0586C93.2852 20.0586 92.7051 20.0586 92.1074 20.0586C91.5098 20.0586 90.9414 20.0645 90.4023 20.0762C89.8633 20.0762 89.3711 20.082 88.9258 20.0938C88.4805 20.0938 88.1348 20.0938 87.8887 20.0938L87.2383 21.4648C86.957 22.0273 86.7168 22.5195 86.5176 22.9414C86.3184 23.3516 86.1543 23.7148 86.0254 24.0312C85.8965 24.3477 85.8027 24.623 85.7441 24.8574C85.6855 25.0801 85.6562 25.291 85.6562 25.4902C85.6562 25.6191 85.6621 25.7188 85.6738 25.7891C85.6855 25.8477 85.7031 25.8945 85.7266 25.9297V26H82.6328V25.9297C82.7148 25.8477 82.8438 25.6719 83.0195 25.4023C83.1953 25.1211 83.3945 24.7812 83.6172 24.3828C83.8516 23.9844 84.0977 23.5332 84.3555 23.0293C84.625 22.5254 84.8887 22.0039 85.1465 21.4648L92.3184 6.66406H93.6367L100.668 21.4648C100.938 22.0273 101.207 22.5664 101.477 23.082C101.758 23.5977 102.016 24.0605 102.25 24.4707C102.484 24.8691 102.689 25.2031 102.865 25.4727C103.041 25.7305 103.158 25.8828 103.217 25.9297V26H98.7168C98.7402 25.9062 98.752 25.8242 98.752 25.7539C98.752 25.6719 98.752 25.584 98.752 25.4902C98.752 25.2324 98.6934 24.9219 98.5762 24.5586C98.4707 24.1953 98.3359 23.8262 98.1719 23.4512C98.0195 23.0645 97.8555 22.6953 97.6797 22.3438C97.5156 21.9922 97.3809 21.6992 97.2754 21.4648L96.5898 20.0586ZM88.5742 18.6875H89.6465C90.1387 18.6875 90.6602 18.6875 91.2109 18.6875C91.7734 18.6758 92.3359 18.6699 92.8984 18.6699C93.4609 18.6699 94.0059 18.6699 94.5332 18.6699C95.0605 18.6582 95.5352 18.6523 95.957 18.6523L92.3184 10.8828L88.5742 18.6875ZM113.922 10.7773H113.57C113.5 10.5781 113.383 10.3262 113.219 10.0215C113.066 9.7168 112.855 9.41797 112.586 9.125C112.328 8.83203 112.006 8.58594 111.619 8.38672C111.232 8.17578 110.77 8.07031 110.23 8.07031C109.82 8.07031 109.451 8.14062 109.123 8.28125C108.807 8.41016 108.537 8.5918 108.314 8.82617C108.092 9.06055 107.922 9.3418 107.805 9.66992C107.688 9.98633 107.629 10.332 107.629 10.707C107.629 11.3164 107.811 11.8965 108.174 12.4473C108.549 12.998 109.012 13.5488 109.562 14.0996C110.113 14.6387 110.711 15.1836 111.355 15.7344C112 16.2852 112.598 16.8594 113.148 17.457C113.699 18.0547 114.156 18.6875 114.52 19.3555C114.895 20.0234 115.082 20.7383 115.082 21.5C115.082 22.0625 114.977 22.6426 114.766 23.2402C114.566 23.8379 114.238 24.377 113.781 24.8574C113.324 25.3379 112.738 25.7305 112.023 26.0352C111.309 26.3516 110.441 26.5098 109.422 26.5098C108.859 26.5098 108.32 26.4629 107.805 26.3691C107.301 26.2754 106.832 26.1582 106.398 26.0176C105.977 25.8887 105.596 25.748 105.256 25.5957C104.928 25.4316 104.652 25.2793 104.43 25.1387L104.746 21.8164H105.115C105.232 22.2266 105.402 22.6367 105.625 23.0469C105.859 23.457 106.141 23.832 106.469 24.1719C106.809 24.5 107.201 24.7695 107.646 24.9805C108.104 25.1797 108.625 25.2793 109.211 25.2793C109.621 25.2793 110.008 25.2148 110.371 25.0859C110.734 24.9453 111.045 24.752 111.303 24.5059C111.572 24.2598 111.783 23.9609 111.936 23.6094C112.088 23.2461 112.164 22.8418 112.164 22.3965C112.164 21.8691 112.059 21.3828 111.848 20.9375C111.637 20.4805 111.355 20.0469 111.004 19.6367C110.652 19.2148 110.254 18.8105 109.809 18.4238C109.375 18.0371 108.924 17.6445 108.455 17.2461C107.986 16.8477 107.529 16.4434 107.084 16.0332C106.65 15.6113 106.258 15.1602 105.906 14.6797C105.555 14.1992 105.273 13.6895 105.062 13.1504C104.852 12.5996 104.746 11.9961 104.746 11.3398C104.746 10.6484 104.893 10.0273 105.186 9.47656C105.479 8.92578 105.865 8.46289 106.346 8.08789C106.826 7.70117 107.377 7.4082 107.998 7.20898C108.619 6.99805 109.264 6.89258 109.932 6.89258C110.424 6.89258 110.881 6.92773 111.303 6.99805C111.736 7.06836 112.123 7.15625 112.463 7.26172C112.814 7.35547 113.119 7.45508 113.377 7.56055C113.635 7.6543 113.846 7.73047 114.01 7.78906L113.922 10.7773Z" fill="#2E5C91"/>
<path d="M150.15 4.66016L149.992 4.73047C149.078 3.88672 147.977 3.21289 146.688 2.70898C145.41 2.20508 144.004 1.95312 142.469 1.95312C140.992 1.95312 139.639 2.1875 138.408 2.65625C137.178 3.11328 136.117 3.78125 135.227 4.66016C134.348 5.53906 133.662 6.61719 133.17 7.89453C132.678 9.17188 132.432 10.625 132.432 12.2539C132.432 14.0469 132.666 15.7227 133.135 17.2812C133.604 18.8281 134.301 20.1699 135.227 21.3066C136.152 22.4434 137.307 23.3398 138.689 23.9961C140.084 24.6406 141.707 24.9629 143.559 24.9629C144.227 24.9629 144.895 24.8926 145.562 24.752C146.23 24.6113 146.869 24.4062 147.479 24.1367C148.1 23.8555 148.68 23.5215 149.219 23.1348C149.77 22.7363 150.268 22.2852 150.713 21.7812L150.906 21.9043L149.5 25.4902C148.621 25.8301 147.648 26.0879 146.582 26.2637C145.527 26.4512 144.461 26.5449 143.383 26.5449C141.215 26.5449 139.229 26.2344 137.424 25.6133C135.631 24.9805 134.084 24.0898 132.783 22.9414C131.494 21.793 130.486 20.416 129.76 18.8105C129.045 17.1934 128.688 15.4004 128.688 13.4316C128.688 12.3184 128.828 11.2227 129.109 10.1445C129.402 9.06641 129.824 8.04102 130.375 7.06836C130.926 6.0957 131.605 5.20508 132.414 4.39648C133.223 3.57617 134.143 2.86719 135.174 2.26953C136.217 1.67188 137.359 1.20898 138.602 0.880859C139.855 0.541016 141.209 0.371094 142.662 0.371094C144.924 0.371094 147.021 0.716797 148.955 1.4082L150.15 4.66016ZM165.391 20.0586C165.074 20.0586 164.676 20.0586 164.195 20.0586C163.727 20.0586 163.211 20.0586 162.648 20.0586C162.086 20.0586 161.506 20.0586 160.908 20.0586C160.311 20.0586 159.742 20.0645 159.203 20.0762C158.664 20.0762 158.172 20.082 157.727 20.0938C157.281 20.0938 156.936 20.0938 156.689 20.0938L156.039 21.4648C155.758 22.0273 155.518 22.5195 155.318 22.9414C155.119 23.3516 154.955 23.7148 154.826 24.0312C154.697 24.3477 154.604 24.623 154.545 24.8574C154.486 25.0801 154.457 25.291 154.457 25.4902C154.457 25.6191 154.463 25.7188 154.475 25.7891C154.486 25.8477 154.504 25.8945 154.527 25.9297V26H151.434V25.9297C151.516 25.8477 151.645 25.6719 151.82 25.4023C151.996 25.1211 152.195 24.7812 152.418 24.3828C152.652 23.9844 152.898 23.5332 153.156 23.0293C153.426 22.5254 153.689 22.0039 153.947 21.4648L161.119 6.66406H162.438L169.469 21.4648C169.738 22.0273 170.008 22.5664 170.277 23.082C170.559 23.5977 170.816 24.0605 171.051 24.4707C171.285 24.8691 171.49 25.2031 171.666 25.4727C171.842 25.7305 171.959 25.8828 172.018 25.9297V26H167.518C167.541 25.9062 167.553 25.8242 167.553 25.7539C167.553 25.6719 167.553 25.584 167.553 25.4902C167.553 25.2324 167.494 24.9219 167.377 24.5586C167.271 24.1953 167.137 23.8262 166.973 23.4512C166.82 23.0645 166.656 22.6953 166.48 22.3438C166.316 21.9922 166.182 21.6992 166.076 21.4648L165.391 20.0586ZM157.375 18.6875H158.447C158.939 18.6875 159.461 18.6875 160.012 18.6875C160.574 18.6758 161.137 18.6699 161.699 18.6699C162.262 18.6699 162.807 18.6699 163.334 18.6699C163.861 18.6582 164.336 18.6523 164.758 18.6523L161.119 10.8828L157.375 18.6875ZM177.73 17.4395C177.965 17.4746 178.193 17.5098 178.416 17.5449C178.65 17.5684 178.879 17.5801 179.102 17.5801C179.77 17.5801 180.379 17.4805 180.93 17.2812C181.492 17.0703 181.967 16.7598 182.354 16.3496C182.752 15.9395 183.057 15.418 183.268 14.7852C183.49 14.1523 183.602 13.4141 183.602 12.5703C183.602 11.8906 183.525 11.2754 183.373 10.7246C183.221 10.1738 182.992 9.70508 182.688 9.31836C182.395 8.91992 182.025 8.61523 181.58 8.4043C181.135 8.18164 180.619 8.07031 180.033 8.07031C179.658 8.07031 179.324 8.08789 179.031 8.12305C178.75 8.14648 178.51 8.17578 178.311 8.21094C178.088 8.25781 177.895 8.30469 177.73 8.35156V17.4395ZM177.73 18.6523C177.73 19.707 177.742 20.6328 177.766 21.4297C177.789 22.2266 177.818 22.918 177.854 23.5039C177.9 24.0781 177.953 24.5645 178.012 24.9629C178.07 25.3613 178.141 25.6836 178.223 25.9297V26H174.162V25.9297C174.244 25.6836 174.314 25.3672 174.373 24.9805C174.443 24.5938 174.496 24.1191 174.531 23.5566C174.578 22.9824 174.613 22.3027 174.637 21.5176C174.66 20.7324 174.672 19.8125 174.672 18.7578V14.3281C174.672 13.2734 174.66 12.3594 174.637 11.5859C174.613 10.8008 174.578 10.127 174.531 9.56445C174.496 8.99023 174.443 8.50977 174.373 8.12305C174.314 7.73633 174.244 7.41992 174.162 7.17383V7.10352C174.42 7.11523 174.678 7.12695 174.936 7.13867C175.158 7.15039 175.393 7.16211 175.639 7.17383C175.896 7.17383 176.137 7.17383 176.359 7.17383C176.734 7.17383 177.285 7.13867 178.012 7.06836C178.75 6.99805 179.617 6.96289 180.613 6.96289C181.527 6.96289 182.377 7.08594 183.162 7.33203C183.947 7.56641 184.621 7.91797 185.184 8.38672C185.758 8.85547 186.203 9.42969 186.52 10.1094C186.848 10.7773 187.012 11.5508 187.012 12.4297C187.012 13.4609 186.812 14.375 186.414 15.1719C186.016 15.957 185.471 16.6191 184.779 17.1582C184.1 17.6855 183.297 18.084 182.371 18.3535C181.445 18.623 180.461 18.7578 179.418 18.7578C178.867 18.7578 178.305 18.7227 177.73 18.6523ZM190.703 14.3281C190.703 13.2734 190.691 12.3594 190.668 11.5859C190.645 10.8008 190.609 10.127 190.562 9.56445C190.527 8.99023 190.475 8.50977 190.404 8.12305C190.346 7.73633 190.275 7.41992 190.193 7.17383V7.10352H194.271V7.17383C194.189 7.41992 194.113 7.73633 194.043 8.12305C193.984 8.50977 193.932 8.99023 193.885 9.56445C193.85 10.127 193.82 10.8008 193.797 11.5859C193.773 12.3594 193.762 13.2734 193.762 14.3281V18.7578C193.762 19.8125 193.773 20.7324 193.797 21.5176C193.82 22.3027 193.85 22.9824 193.885 23.5566C193.932 24.1191 193.984 24.5938 194.043 24.9805C194.113 25.3672 194.189 25.6836 194.271 25.9297V26H190.193V25.9297C190.275 25.6836 190.346 25.3672 190.404 24.9805C190.475 24.5938 190.527 24.1191 190.562 23.5566C190.609 22.9824 190.645 22.3027 190.668 21.5176C190.691 20.7324 190.703 19.8125 190.703 18.7578V14.3281ZM203.992 8.4043C202.926 8.4043 201.953 8.45117 201.074 8.54492C200.207 8.63867 199.457 8.73828 198.824 8.84375C198.098 8.97266 197.441 9.11328 196.855 9.26562L197.207 6.99805C197.383 7.02148 197.67 7.03906 198.068 7.05078C198.467 7.0625 198.883 7.07422 199.316 7.08594C199.762 7.08594 200.178 7.0918 200.564 7.10352C200.963 7.10352 201.238 7.10352 201.391 7.10352H209.705C209.846 7.10352 210.104 7.10352 210.479 7.10352C210.865 7.0918 211.275 7.08594 211.709 7.08594C212.143 7.07422 212.559 7.0625 212.957 7.05078C213.355 7.03906 213.643 7.02148 213.818 6.99805L214.17 9.26562C213.607 9.11328 212.963 8.97266 212.236 8.84375C211.615 8.73828 210.865 8.63867 209.986 8.54492C209.119 8.45117 208.141 8.4043 207.051 8.4043V18.7578C207.051 19.8125 207.062 20.7324 207.086 21.5176C207.109 22.3027 207.139 22.9824 207.174 23.5566C207.221 24.1191 207.273 24.5938 207.332 24.9805C207.391 25.3672 207.461 25.6836 207.543 25.9297V26H203.482V25.9297C203.564 25.6836 203.635 25.3672 203.693 24.9805C203.752 24.5938 203.805 24.1191 203.852 23.5566C203.898 22.9824 203.934 22.3027 203.957 21.5176C203.98 20.7324 203.992 19.8125 203.992 18.7578V8.4043ZM226.984 20.0586C226.668 20.0586 226.27 20.0586 225.789 20.0586C225.32 20.0586 224.805 20.0586 224.242 20.0586C223.68 20.0586 223.1 20.0586 222.502 20.0586C221.904 20.0586 221.336 20.0645 220.797 20.0762C220.258 20.0762 219.766 20.082 219.32 20.0938C218.875 20.0938 218.529 20.0938 218.283 20.0938L217.633 21.4648C217.352 22.0273 217.111 22.5195 216.912 22.9414C216.713 23.3516 216.549 23.7148 216.42 24.0312C216.291 24.3477 216.197 24.623 216.139 24.8574C216.08 25.0801 216.051 25.291 216.051 25.4902C216.051 25.6191 216.057 25.7188 216.068 25.7891C216.08 25.8477 216.098 25.8945 216.121 25.9297V26H213.027V25.9297C213.109 25.8477 213.238 25.6719 213.414 25.4023C213.59 25.1211 213.789 24.7812 214.012 24.3828C214.246 23.9844 214.492 23.5332 214.75 23.0293C215.02 22.5254 215.283 22.0039 215.541 21.4648L222.713 6.66406H224.031L231.062 21.4648C231.332 22.0273 231.602 22.5664 231.871 23.082C232.152 23.5977 232.41 24.0605 232.645 24.4707C232.879 24.8691 233.084 25.2031 233.26 25.4727C233.436 25.7305 233.553 25.8828 233.611 25.9297V26H229.111C229.135 25.9062 229.146 25.8242 229.146 25.7539C229.146 25.6719 229.146 25.584 229.146 25.4902C229.146 25.2324 229.088 24.9219 228.971 24.5586C228.865 24.1953 228.73 23.8262 228.566 23.4512C228.414 23.0645 228.25 22.6953 228.074 22.3438C227.91 21.9922 227.775 21.6992 227.67 21.4648L226.984 20.0586ZM218.969 18.6875H220.041C220.533 18.6875 221.055 18.6875 221.605 18.6875C222.168 18.6758 222.73 18.6699 223.293 18.6699C223.855 18.6699 224.4 18.6699 224.928 18.6699C225.455 18.6582 225.93 18.6523 226.352 18.6523L222.713 10.8828L218.969 18.6875ZM239.324 24.6289C240.414 24.6289 241.416 24.5879 242.33 24.5059C243.256 24.4121 244.064 24.3125 244.756 24.207C245.564 24.0781 246.297 23.9316 246.953 23.7676L246.549 26.1055C246.385 26.0938 246.104 26.0762 245.705 26.0527C245.318 26.041 244.908 26.0293 244.475 26.0176C244.041 26.0176 243.637 26.0117 243.262 26C242.887 26 242.629 26 242.488 26H235.756V25.9297C235.838 25.6836 235.908 25.3672 235.967 24.9805C236.037 24.5938 236.09 24.1191 236.125 23.5566C236.172 22.9824 236.207 22.3027 236.23 21.5176C236.254 20.7324 236.266 19.8125 236.266 18.7578V14.3281C236.266 13.2734 236.254 12.3594 236.23 11.5859C236.207 10.8008 236.172 10.127 236.125 9.56445C236.09 8.99023 236.037 8.50977 235.967 8.12305C235.908 7.73633 235.838 7.41992 235.756 7.17383V7.10352H239.816V7.17383C239.734 7.41992 239.664 7.73633 239.605 8.12305C239.547 8.50977 239.494 8.99023 239.447 9.56445C239.412 10.127 239.383 10.8008 239.359 11.5859C239.336 12.3594 239.324 13.2734 239.324 14.3281V24.6289Z" fill="#982041"/>
</svg>
